<svg width="38" height="38" viewBox="0 0 38 38" fill="none" xmlns="http://www.w3.org/2000/svg">
<path d="M14.8421 10.1457C13.464 10.1993 12.2196 10.6909 11.5539 11.3568C11.2448 11.666 10.7435 11.666 10.4343 11.3569C10.1251 11.0478 10.125 10.5465 10.4342 10.2373C11.4613 9.21001 13.1328 8.62766 14.7805 8.56354C16.439 8.49902 18.2496 8.95312 19.5176 10.2214C19.8267 10.5305 19.8267 11.0318 19.5174 11.3409C19.2083 11.6501 18.707 11.65 18.3979 11.3409C17.5342 10.4769 16.2093 10.0925 14.8421 10.1457Z" fill="#333333"/>
<path fill-rule="evenodd" clip-rule="evenodd" d="M22.9073 21.6791C24.4209 19.8872 25.3333 17.571 25.3333 15.0417C25.3333 9.35774 20.7256 4.75 15.0417 4.75C9.35774 4.75 4.75 9.35774 4.75 15.0417C4.75 20.7256 9.35774 25.3333 15.0417 25.3333C17.571 25.3333 19.8872 24.4209 21.6791 22.9073L21.375 24.6558L27.3233 30.6042L30.6042 27.3233L24.6558 21.375L22.9073 21.6791ZM15.0417 22.9583C19.4139 22.9583 22.9583 19.4139 22.9583 15.0417C22.9583 10.6694 19.4139 7.125 15.0417 7.125C10.6695 7.125 7.125 10.6694 7.125 15.0417C7.125 19.4139 10.6695 22.9583 15.0417 22.9583Z" fill="#333333"/>
<path d="M28.4429 31.7237L31.7237 28.4429L32.797 29.5162C33.401 30.1202 33.401 31.0994 32.797 31.7034L31.7034 32.797C31.0994 33.401 30.1202 33.401 29.5163 32.797L28.4429 31.7237Z" fill="#333333"/>
</svg>
